<mxfile host="app.diagrams.net" modified="2023-09-14T22:25:38.007Z" agent="Mozilla/5.0 (Windows NT 10.0; Win64; x64) AppleWebKit/537.36 (KHTML, like Gecko) Chrome/116.0.0.0 Safari/537.36" etag="PcrDfhlWvITNEjkWApPC" version="21.7.2" type="github">
  <diagram id="C5RBs43oDa-KdzZeNtuy" name="Page-1">
    <mxGraphModel dx="3436" dy="942" grid="1" gridSize="20" guides="1" tooltips="1" connect="0" arrows="1" fold="1" page="0" pageScale="1" pageWidth="980" pageHeight="1390" background="none" math="0" shadow="1">
      <root>
        <mxCell id="WIyWlLk6GJQsqaUBKTNV-0" />
        <mxCell id="WIyWlLk6GJQsqaUBKTNV-1" parent="WIyWlLk6GJQsqaUBKTNV-0" />
        <mxCell id="WIyWlLk6GJQsqaUBKTNV-6" value="&lt;p style=&quot;line-height: 90%; font-size: 14px;&quot;&gt;&lt;font color=&quot;#1a1a1a&quot;&gt;多Es una ruta&lt;br&gt;absoluta?&lt;/font&gt;&lt;/p&gt;" style="rhombus;whiteSpace=wrap;html=1;shadow=0;fontFamily=Helvetica;fontSize=12;align=center;strokeWidth=1;spacing=6;spacingTop=-4;labelBackgroundColor=none;labelBorderColor=default;fillColor=#78F000;fontColor=#ffffff;strokeColor=#78F000;gradientColor=#00CC66;" parent="WIyWlLk6GJQsqaUBKTNV-1" vertex="1">
          <mxGeometry x="-580" y="160" width="120" height="80" as="geometry" />
        </mxCell>
        <mxCell id="WIyWlLk6GJQsqaUBKTNV-11" value="&lt;font style=&quot;font-size: 14px;&quot;&gt;Resolver ruta, convertir a ruta&lt;br&gt;ABSOLUTA&lt;/font&gt;" style="rounded=1;whiteSpace=wrap;html=1;fontSize=12;glass=0;strokeWidth=1;shadow=0;fillColor=#FF0080;gradientColor=#FFCCE6;strokeColor=#FF0080;" parent="WIyWlLk6GJQsqaUBKTNV-1" vertex="1">
          <mxGeometry x="-600" y="370" width="160" height="50" as="geometry" />
        </mxCell>
        <mxCell id="c_P0hSTcN6kzpW9nxXxJ-16" value="" style="edgeStyle=elbowEdgeStyle;elbow=horizontal;html=1;rounded=1;curved=0;sourcePerimeterSpacing=0;targetPerimeterSpacing=0;startSize=6;endSize=6;strokeColor=#B3B3B3;" parent="WIyWlLk6GJQsqaUBKTNV-1" edge="1">
          <mxGeometry relative="1" as="geometry">
            <mxPoint x="-820" y="90" as="sourcePoint" />
            <mxPoint x="-730" y="130" as="targetPoint" />
            <Array as="points">
              <mxPoint x="-780" y="100" />
            </Array>
          </mxGeometry>
        </mxCell>
        <mxCell id="c_P0hSTcN6kzpW9nxXxJ-18" value="&lt;font style=&quot;font-size: 14px;&quot;&gt;Recibe como&amp;nbsp;&lt;br&gt;argumento&lt;br&gt;(Path ,Option)&lt;/font&gt;" style="shape=parallelogram;perimeter=parallelogramPerimeter;whiteSpace=wrap;html=1;fixedSize=1;rounded=1;arcSize=14;fillColor=#FF66FF;strokeColor=#996185;gradientColor=#FFCCE6;gradientDirection=west;" parent="WIyWlLk6GJQsqaUBKTNV-1" vertex="1">
          <mxGeometry x="-740" y="100" width="140" height="60" as="geometry" />
        </mxCell>
        <mxCell id="c_P0hSTcN6kzpW9nxXxJ-19" value="" style="edgeStyle=elbowEdgeStyle;elbow=vertical;html=1;rounded=1;curved=0;sourcePerimeterSpacing=0;targetPerimeterSpacing=0;startSize=6;endSize=6;exitX=0.429;exitY=1;exitDx=0;exitDy=0;exitPerimeter=0;strokeColor=#B3B3B3;" parent="WIyWlLk6GJQsqaUBKTNV-1" source="c_P0hSTcN6kzpW9nxXxJ-18" edge="1">
          <mxGeometry relative="1" as="geometry">
            <mxPoint x="-680" y="170" as="sourcePoint" />
            <mxPoint x="-580" y="200" as="targetPoint" />
            <Array as="points">
              <mxPoint x="-620" y="200" />
            </Array>
          </mxGeometry>
        </mxCell>
        <mxCell id="c_P0hSTcN6kzpW9nxXxJ-54" value="" style="endArrow=classic;html=1;rounded=0;strokeColor=#00CC66;" parent="WIyWlLk6GJQsqaUBKTNV-1" edge="1">
          <mxGeometry width="50" height="50" relative="1" as="geometry">
            <mxPoint x="-459" y="200.44" as="sourcePoint" />
            <mxPoint x="-289" y="200.44" as="targetPoint" />
          </mxGeometry>
        </mxCell>
        <mxCell id="c_P0hSTcN6kzpW9nxXxJ-58" value="&lt;font color=&quot;#1a1a1a&quot; style=&quot;font-size: 14px;&quot;&gt;Si&lt;/font&gt;&lt;font style=&quot;font-size: 14px;&quot; color=&quot;#ffffff&quot;&gt;&amp;nbsp;&lt;/font&gt;" style="edgeLabel;html=1;align=center;verticalAlign=middle;resizable=0;points=[];labelBackgroundColor=#78F000;" parent="c_P0hSTcN6kzpW9nxXxJ-54" vertex="1" connectable="0">
          <mxGeometry x="-0.0727" y="-2" relative="1" as="geometry">
            <mxPoint as="offset" />
          </mxGeometry>
        </mxCell>
        <mxCell id="c_P0hSTcN6kzpW9nxXxJ-59" value="&lt;font style=&quot;font-size: 14px;&quot;&gt;多Es una ruta&lt;br&gt;valida?&lt;/font&gt;" style="rhombus;whiteSpace=wrap;html=1;shadow=0;fontFamily=Helvetica;fontSize=12;align=center;strokeWidth=1;spacing=6;spacingTop=-4;strokeColor=#78F000;fillColor=#78F000;gradientColor=#00CC66;" parent="WIyWlLk6GJQsqaUBKTNV-1" vertex="1">
          <mxGeometry x="-290" y="160" width="120" height="80" as="geometry" />
        </mxCell>
        <mxCell id="c_P0hSTcN6kzpW9nxXxJ-60" value="" style="endArrow=classic;html=1;rounded=0;strokeColor=#00CC66;" parent="WIyWlLk6GJQsqaUBKTNV-1" edge="1">
          <mxGeometry width="50" height="50" relative="1" as="geometry">
            <mxPoint x="-170" y="199.87" as="sourcePoint" />
            <mxPoint x="-20" y="199.23000000000002" as="targetPoint" />
          </mxGeometry>
        </mxCell>
        <mxCell id="c_P0hSTcN6kzpW9nxXxJ-61" value="&lt;font color=&quot;#1a1a1a&quot; style=&quot;font-size: 14px;&quot;&gt;Si&lt;/font&gt;" style="edgeLabel;html=1;align=center;verticalAlign=middle;resizable=0;points=[];labelBackgroundColor=#78F000;" parent="c_P0hSTcN6kzpW9nxXxJ-60" vertex="1" connectable="0">
          <mxGeometry x="-0.0727" y="-2" relative="1" as="geometry">
            <mxPoint as="offset" />
          </mxGeometry>
        </mxCell>
        <mxCell id="c_P0hSTcN6kzpW9nxXxJ-62" value="&lt;font style=&quot;font-size: 14px;&quot;&gt;多Es un archivo?&lt;/font&gt;" style="rhombus;whiteSpace=wrap;html=1;shadow=0;fontFamily=Helvetica;fontSize=12;align=center;strokeWidth=1;spacing=6;spacingTop=-4;fillColor=#78F000;gradientColor=#00CC66;strokeColor=#78F000;" parent="WIyWlLk6GJQsqaUBKTNV-1" vertex="1">
          <mxGeometry x="-20" y="160" width="120" height="80" as="geometry" />
        </mxCell>
        <mxCell id="c_P0hSTcN6kzpW9nxXxJ-70" value="" style="edgeStyle=elbowEdgeStyle;elbow=vertical;html=1;rounded=1;curved=0;sourcePerimeterSpacing=0;targetPerimeterSpacing=0;startSize=6;endSize=6;strokeColor=#FF6666;" parent="WIyWlLk6GJQsqaUBKTNV-1" edge="1">
          <mxGeometry relative="1" as="geometry">
            <mxPoint x="40" y="240" as="sourcePoint" />
            <mxPoint x="100" y="310" as="targetPoint" />
            <Array as="points">
              <mxPoint x="70" y="310" />
            </Array>
          </mxGeometry>
        </mxCell>
        <mxCell id="c_P0hSTcN6kzpW9nxXxJ-73" value="&lt;span style=&quot;&quot;&gt;&lt;font color=&quot;#ffffff&quot;&gt;No&amp;nbsp;&lt;/font&gt;&lt;/span&gt;" style="edgeLabel;html=1;align=center;verticalAlign=middle;resizable=0;points=[];labelBackgroundColor=#FF6666;" parent="c_P0hSTcN6kzpW9nxXxJ-70" vertex="1" connectable="0">
          <mxGeometry x="0.2775" relative="1" as="geometry">
            <mxPoint as="offset" />
          </mxGeometry>
        </mxCell>
        <mxCell id="c_P0hSTcN6kzpW9nxXxJ-74" value="&lt;font style=&quot;font-size: 15px;&quot;&gt;Obtener una lista de todo los archivos&lt;/font&gt;" style="rounded=1;whiteSpace=wrap;html=1;fontSize=12;glass=0;strokeWidth=1;shadow=0;fillColor=#FF0080;gradientColor=#FFCCE6;strokeColor=#FF0080;" parent="WIyWlLk6GJQsqaUBKTNV-1" vertex="1">
          <mxGeometry x="100" y="280" width="150" height="50" as="geometry" />
        </mxCell>
        <mxCell id="c_P0hSTcN6kzpW9nxXxJ-87" value="" style="edgeStyle=segmentEdgeStyle;endArrow=classic;html=1;endSize=8;startSize=8;sourcePerimeterSpacing=0;targetPerimeterSpacing=0;rounded=1;shadow=0;fillColor=#d5e8d4;strokeColor=#00CC66;" parent="WIyWlLk6GJQsqaUBKTNV-1" edge="1">
          <mxGeometry width="100" relative="1" as="geometry">
            <mxPoint x="40" y="160" as="sourcePoint" />
            <mxPoint x="350" y="200" as="targetPoint" />
            <Array as="points">
              <mxPoint x="40" y="80" />
              <mxPoint x="330" y="80" />
              <mxPoint x="330" y="200" />
            </Array>
          </mxGeometry>
        </mxCell>
        <mxCell id="c_P0hSTcN6kzpW9nxXxJ-153" value="&lt;font style=&quot;&quot;&gt;&lt;span style=&quot;color: rgb(255, 255, 255); font-size: 12px;&quot;&gt;&amp;nbsp;&lt;/span&gt;&lt;font color=&quot;#1a1a1a&quot; style=&quot;font-size: 14px;&quot;&gt;Si&lt;/font&gt;&lt;span style=&quot;color: rgb(255, 255, 255); font-size: 12px;&quot;&gt;&amp;nbsp;&lt;/span&gt;&lt;/font&gt;" style="edgeLabel;html=1;align=center;verticalAlign=middle;resizable=0;points=[];labelBackgroundColor=#78F000;" parent="c_P0hSTcN6kzpW9nxXxJ-87" vertex="1" connectable="0">
          <mxGeometry x="-0.6342" y="-4" relative="1" as="geometry">
            <mxPoint as="offset" />
          </mxGeometry>
        </mxCell>
        <mxCell id="c_P0hSTcN6kzpW9nxXxJ-90" value="" style="edgeStyle=segmentEdgeStyle;endArrow=classic;html=1;endSize=8;startSize=8;sourcePerimeterSpacing=0;targetPerimeterSpacing=0;rounded=1;fillColor=#f8cecc;strokeColor=#B3B3B3;" parent="WIyWlLk6GJQsqaUBKTNV-1" edge="1">
          <mxGeometry width="100" relative="1" as="geometry">
            <mxPoint x="250" y="307.5" as="sourcePoint" />
            <mxPoint x="390" y="200" as="targetPoint" />
            <Array as="points">
              <mxPoint x="250" y="305.5" />
              <mxPoint x="330" y="305.5" />
              <mxPoint x="330" y="200.5" />
            </Array>
          </mxGeometry>
        </mxCell>
        <mxCell id="c_P0hSTcN6kzpW9nxXxJ-93" value="&lt;font style=&quot;font-size: 12px;&quot;&gt;多Es un archivo&lt;br&gt;MARKDOWN?&lt;/font&gt;" style="rhombus;whiteSpace=wrap;html=1;shadow=0;fontFamily=Helvetica;fontSize=12;align=center;strokeWidth=1;spacing=6;spacingTop=-4;fillColor=#78F000;gradientColor=#00CC66;strokeColor=#78F000;" parent="WIyWlLk6GJQsqaUBKTNV-1" vertex="1">
          <mxGeometry x="390" y="160" width="120" height="80" as="geometry" />
        </mxCell>
        <mxCell id="c_P0hSTcN6kzpW9nxXxJ-94" value="" style="edgeStyle=segmentEdgeStyle;endArrow=classic;html=1;endSize=8;startSize=8;sourcePerimeterSpacing=0;targetPerimeterSpacing=0;exitX=0.5;exitY=0;exitDx=0;exitDy=0;rounded=1;" parent="WIyWlLk6GJQsqaUBKTNV-1" source="c_P0hSTcN6kzpW9nxXxJ-93" edge="1">
          <mxGeometry width="100" relative="1" as="geometry">
            <mxPoint x="420" y="70" as="sourcePoint" />
            <mxPoint x="560" y="70" as="targetPoint" />
            <Array as="points">
              <mxPoint x="450" y="70" />
            </Array>
          </mxGeometry>
        </mxCell>
        <mxCell id="c_P0hSTcN6kzpW9nxXxJ-96" value="&amp;nbsp;Si&amp;nbsp;" style="edgeLabel;html=1;align=center;verticalAlign=middle;resizable=0;points=[];" parent="c_P0hSTcN6kzpW9nxXxJ-94" vertex="1" connectable="0">
          <mxGeometry x="0.4519" y="3" relative="1" as="geometry">
            <mxPoint as="offset" />
          </mxGeometry>
        </mxCell>
        <mxCell id="c_P0hSTcN6kzpW9nxXxJ-97" value="&lt;font style=&quot;font-size: 15px;&quot;&gt;Lee archivo&lt;/font&gt;" style="rounded=1;whiteSpace=wrap;html=1;fontSize=12;glass=0;strokeWidth=1;shadow=0;fillColor=#FF0080;gradientColor=#FFCCE6;strokeColor=#FF0080;" parent="WIyWlLk6GJQsqaUBKTNV-1" vertex="1">
          <mxGeometry x="560" y="50" width="120" height="40" as="geometry" />
        </mxCell>
        <mxCell id="c_P0hSTcN6kzpW9nxXxJ-98" value="" style="edgeStyle=segmentEdgeStyle;endArrow=classic;html=1;endSize=8;startSize=8;sourcePerimeterSpacing=0;targetPerimeterSpacing=0;exitX=0.5;exitY=0;exitDx=0;exitDy=0;rounded=1;strokeColor=#00CC66;" parent="WIyWlLk6GJQsqaUBKTNV-1" edge="1">
          <mxGeometry width="100" relative="1" as="geometry">
            <mxPoint x="450" y="160" as="sourcePoint" />
            <mxPoint x="560" y="70" as="targetPoint" />
            <Array as="points">
              <mxPoint x="450" y="70" />
            </Array>
          </mxGeometry>
        </mxCell>
        <mxCell id="c_P0hSTcN6kzpW9nxXxJ-99" value="&lt;font color=&quot;#1a1a1a&quot; style=&quot;font-size: 14px;&quot;&gt;&amp;nbsp;Si&amp;nbsp;&lt;/font&gt;" style="edgeLabel;html=1;align=center;verticalAlign=middle;resizable=0;points=[];labelBackgroundColor=#78F000;" parent="c_P0hSTcN6kzpW9nxXxJ-98" vertex="1" connectable="0">
          <mxGeometry x="0.4519" y="3" relative="1" as="geometry">
            <mxPoint as="offset" />
          </mxGeometry>
        </mxCell>
        <mxCell id="c_P0hSTcN6kzpW9nxXxJ-100" value="" style="edgeStyle=segmentEdgeStyle;endArrow=classic;html=1;endSize=8;startSize=8;sourcePerimeterSpacing=0;targetPerimeterSpacing=0;exitX=0.5;exitY=1;exitDx=0;exitDy=0;rounded=1;strokeColor=#FF6666;" parent="WIyWlLk6GJQsqaUBKTNV-1" source="c_P0hSTcN6kzpW9nxXxJ-93" edge="1">
          <mxGeometry width="100" relative="1" as="geometry">
            <mxPoint x="435" y="310" as="sourcePoint" />
            <mxPoint x="570" y="310" as="targetPoint" />
            <Array as="points">
              <mxPoint x="450" y="310" />
              <mxPoint x="545" y="310" />
            </Array>
          </mxGeometry>
        </mxCell>
        <mxCell id="c_P0hSTcN6kzpW9nxXxJ-102" value="&lt;span style=&quot;&quot;&gt;&lt;font color=&quot;#ffffff&quot;&gt;&amp;nbsp;No&amp;nbsp;&lt;/font&gt;&lt;/span&gt;" style="edgeLabel;html=1;align=center;verticalAlign=middle;resizable=0;points=[];labelBackgroundColor=#FF6666;" parent="c_P0hSTcN6kzpW9nxXxJ-100" vertex="1" connectable="0">
          <mxGeometry x="0.3606" y="-4" relative="1" as="geometry">
            <mxPoint as="offset" />
          </mxGeometry>
        </mxCell>
        <mxCell id="c_P0hSTcN6kzpW9nxXxJ-110" value="&lt;span style=&quot;font-weight: 400;&quot;&gt;&lt;font style=&quot;font-size: 16px;&quot;&gt;FIN&lt;/font&gt;&lt;/span&gt;" style="rounded=0;whiteSpace=wrap;html=1;fontStyle=1;fillColor=#ffcd28;gradientColor=#ffa500;strokeColor=#d79b00;" parent="WIyWlLk6GJQsqaUBKTNV-1" vertex="1">
          <mxGeometry x="570" y="285" width="80" height="40" as="geometry" />
        </mxCell>
        <mxCell id="c_P0hSTcN6kzpW9nxXxJ-112" value="" style="edgeStyle=segmentEdgeStyle;endArrow=classic;html=1;curved=0;rounded=0;endSize=8;startSize=8;sourcePerimeterSpacing=0;targetPerimeterSpacing=0;exitX=1;exitY=0.5;exitDx=0;exitDy=0;strokeColor=#B3B3B3;" parent="WIyWlLk6GJQsqaUBKTNV-1" source="c_P0hSTcN6kzpW9nxXxJ-97" edge="1">
          <mxGeometry width="100" relative="1" as="geometry">
            <mxPoint x="720" y="80" as="sourcePoint" />
            <mxPoint x="820" y="150" as="targetPoint" />
            <Array as="points">
              <mxPoint x="820" y="70" />
            </Array>
          </mxGeometry>
        </mxCell>
        <mxCell id="a07x84K2xWL_65sZdXl0-0" value="" style="edgeStyle=orthogonalEdgeStyle;rounded=0;orthogonalLoop=1;jettySize=auto;html=1;" edge="1" parent="WIyWlLk6GJQsqaUBKTNV-1" source="c_P0hSTcN6kzpW9nxXxJ-113" target="c_P0hSTcN6kzpW9nxXxJ-115">
          <mxGeometry relative="1" as="geometry" />
        </mxCell>
        <mxCell id="c_P0hSTcN6kzpW9nxXxJ-113" value="&lt;font style=&quot;font-size: 15px;&quot;&gt;Extrae Links&lt;/font&gt;" style="rounded=1;whiteSpace=wrap;html=1;fontSize=12;glass=0;strokeWidth=1;shadow=0;fillColor=#FF0080;gradientColor=#FFCCE6;strokeColor=#FF0080;" parent="WIyWlLk6GJQsqaUBKTNV-1" vertex="1">
          <mxGeometry x="760" y="150" width="120" height="40" as="geometry" />
        </mxCell>
        <mxCell id="c_P0hSTcN6kzpW9nxXxJ-114" value="" style="edgeStyle=none;orthogonalLoop=1;jettySize=auto;html=1;rounded=0;strokeColor=#CCCCCC;" parent="WIyWlLk6GJQsqaUBKTNV-1" edge="1">
          <mxGeometry width="100" relative="1" as="geometry">
            <mxPoint x="820" y="190" as="sourcePoint" />
            <mxPoint x="819.44" y="265" as="targetPoint" />
            <Array as="points" />
          </mxGeometry>
        </mxCell>
        <mxCell id="c_P0hSTcN6kzpW9nxXxJ-120" style="edgeStyle=orthogonalEdgeStyle;rounded=1;orthogonalLoop=1;jettySize=auto;html=1;entryX=0.538;entryY=0;entryDx=0;entryDy=0;entryPerimeter=0;strokeColor=#00CC66;" parent="WIyWlLk6GJQsqaUBKTNV-1" source="c_P0hSTcN6kzpW9nxXxJ-115" target="c_P0hSTcN6kzpW9nxXxJ-121" edge="1">
          <mxGeometry relative="1" as="geometry">
            <mxPoint x="930" y="400" as="targetPoint" />
            <Array as="points">
              <mxPoint x="930" y="305" />
            </Array>
          </mxGeometry>
        </mxCell>
        <mxCell id="c_P0hSTcN6kzpW9nxXxJ-123" value="&lt;font style=&quot;&quot;&gt;&lt;span style=&quot;color: rgb(255, 255, 255); font-size: 12px;&quot;&gt;&amp;nbsp;&lt;/span&gt;&lt;font color=&quot;#1a1a1a&quot; style=&quot;font-size: 14px;&quot;&gt;Si&lt;/font&gt;&lt;span style=&quot;color: rgb(255, 255, 255); font-size: 12px;&quot;&gt;&amp;nbsp;&lt;/span&gt;&lt;/font&gt;" style="edgeLabel;html=1;align=center;verticalAlign=middle;resizable=0;points=[];labelBackgroundColor=#78F000;" parent="c_P0hSTcN6kzpW9nxXxJ-120" vertex="1" connectable="0">
          <mxGeometry x="0.2981" y="1" relative="1" as="geometry">
            <mxPoint as="offset" />
          </mxGeometry>
        </mxCell>
        <mxCell id="c_P0hSTcN6kzpW9nxXxJ-115" value="&lt;font style=&quot;font-size: 14px;&quot;&gt;多Opciones,&lt;br&gt;validate?&lt;/font&gt;" style="rhombus;whiteSpace=wrap;html=1;shadow=0;fontFamily=Helvetica;fontSize=12;align=center;strokeWidth=1;spacing=6;spacingTop=-4;fillColor=#78F000;gradientColor=#00CC66;strokeColor=#78F000;" parent="WIyWlLk6GJQsqaUBKTNV-1" vertex="1">
          <mxGeometry x="760" y="265" width="120" height="80" as="geometry" />
        </mxCell>
        <mxCell id="c_P0hSTcN6kzpW9nxXxJ-118" value="" style="edgeStyle=segmentEdgeStyle;endArrow=classic;html=1;endSize=8;startSize=8;sourcePerimeterSpacing=0;targetPerimeterSpacing=0;exitX=0;exitY=0.5;exitDx=0;exitDy=0;rounded=1;strokeColor=#FF6666;" parent="WIyWlLk6GJQsqaUBKTNV-1" source="c_P0hSTcN6kzpW9nxXxJ-115" edge="1">
          <mxGeometry width="100" relative="1" as="geometry">
            <mxPoint x="740" y="307.5000000000001" as="sourcePoint" />
            <mxPoint x="710" y="410" as="targetPoint" />
            <Array as="points">
              <mxPoint x="710" y="305" />
            </Array>
          </mxGeometry>
        </mxCell>
        <mxCell id="c_P0hSTcN6kzpW9nxXxJ-167" value="&lt;span style=&quot;&quot;&gt;&lt;font color=&quot;#ffffff&quot;&gt;&amp;nbsp;No&amp;nbsp;&lt;/font&gt;&lt;/span&gt;" style="edgeLabel;html=1;align=center;verticalAlign=middle;resizable=0;points=[];labelBackgroundColor=#FF6666;" parent="c_P0hSTcN6kzpW9nxXxJ-118" vertex="1" connectable="0">
          <mxGeometry x="0.3204" y="-1" relative="1" as="geometry">
            <mxPoint as="offset" />
          </mxGeometry>
        </mxCell>
        <mxCell id="c_P0hSTcN6kzpW9nxXxJ-121" value="&lt;font style=&quot;font-size: 14px;&quot;&gt;TRUE:&lt;br&gt;[href, text, file, status,ok]&lt;/font&gt;" style="rounded=1;whiteSpace=wrap;html=1;fontSize=12;glass=0;strokeWidth=1;shadow=0;fillColor=#FF0080;gradientColor=#FFCCE6;strokeColor=#FF0080;" parent="WIyWlLk6GJQsqaUBKTNV-1" vertex="1">
          <mxGeometry x="860" y="410" width="130" height="50" as="geometry" />
        </mxCell>
        <mxCell id="c_P0hSTcN6kzpW9nxXxJ-122" value="&lt;font style=&quot;font-size: 14px;&quot;&gt;FALSE:&lt;br&gt;{href,text,file}&lt;/font&gt;" style="rounded=1;whiteSpace=wrap;html=1;fontSize=12;glass=0;strokeWidth=1;shadow=0;fillColor=#FF0080;gradientColor=#FFCCE6;strokeColor=#FF0080;" parent="WIyWlLk6GJQsqaUBKTNV-1" vertex="1">
          <mxGeometry x="661" y="410" width="119" height="50" as="geometry" />
        </mxCell>
        <mxCell id="c_P0hSTcN6kzpW9nxXxJ-127" value="" style="edgeStyle=segmentEdgeStyle;endArrow=classic;html=1;endSize=8;startSize=8;sourcePerimeterSpacing=0;targetPerimeterSpacing=0;rounded=1;strokeColor=#B3B3B3;" parent="WIyWlLk6GJQsqaUBKTNV-1" edge="1">
          <mxGeometry width="100" relative="1" as="geometry">
            <mxPoint x="660" y="440" as="sourcePoint" />
            <mxPoint x="600" y="330" as="targetPoint" />
            <Array as="points">
              <mxPoint x="630" y="440" />
              <mxPoint x="630" y="360" />
              <mxPoint x="600" y="360" />
            </Array>
          </mxGeometry>
        </mxCell>
        <mxCell id="c_P0hSTcN6kzpW9nxXxJ-125" value="" style="edgeStyle=segmentEdgeStyle;endArrow=classic;html=1;endSize=8;startSize=8;sourcePerimeterSpacing=0;targetPerimeterSpacing=0;rounded=1;strokeColor=#B3B3B3;" parent="WIyWlLk6GJQsqaUBKTNV-1" edge="1">
          <mxGeometry width="100" relative="1" as="geometry">
            <mxPoint x="600" y="340" as="sourcePoint" />
            <mxPoint x="930" y="460" as="targetPoint" />
            <Array as="points">
              <mxPoint x="600" y="360" />
              <mxPoint x="570" y="360" />
              <mxPoint x="570" y="530" />
              <mxPoint x="930" y="530" />
            </Array>
          </mxGeometry>
        </mxCell>
        <mxCell id="c_P0hSTcN6kzpW9nxXxJ-139" value="" style="edgeStyle=segmentEdgeStyle;endArrow=classic;html=1;rounded=1;endSize=8;startSize=8;sourcePerimeterSpacing=0;targetPerimeterSpacing=0;labelBackgroundColor=#2cba4f;strokeColor=#FF6666;" parent="WIyWlLk6GJQsqaUBKTNV-1" edge="1">
          <mxGeometry width="100" relative="1" as="geometry">
            <mxPoint x="-520" y="240" as="sourcePoint" />
            <mxPoint x="-600" y="400" as="targetPoint" />
            <Array as="points">
              <mxPoint x="-520" y="270" />
              <mxPoint x="-650" y="270" />
              <mxPoint x="-650" y="400" />
            </Array>
          </mxGeometry>
        </mxCell>
        <mxCell id="c_P0hSTcN6kzpW9nxXxJ-150" value="&lt;font style=&quot;&quot; color=&quot;#ffffff&quot;&gt;&amp;nbsp;No&lt;/font&gt;" style="edgeLabel;html=1;align=center;verticalAlign=middle;resizable=0;points=[];fillColor=#00CC00;labelBackgroundColor=#FF6666;" parent="c_P0hSTcN6kzpW9nxXxJ-139" vertex="1" connectable="0">
          <mxGeometry x="-0.2265" y="4" relative="1" as="geometry">
            <mxPoint x="-1" as="offset" />
          </mxGeometry>
        </mxCell>
        <mxCell id="c_P0hSTcN6kzpW9nxXxJ-140" value="" style="edgeStyle=segmentEdgeStyle;endArrow=classic;html=1;rounded=1;endSize=8;startSize=8;sourcePerimeterSpacing=0;targetPerimeterSpacing=0;strokeColor=#B3B3B3;" parent="WIyWlLk6GJQsqaUBKTNV-1" edge="1">
          <mxGeometry width="100" relative="1" as="geometry">
            <mxPoint x="-520" y="240" as="sourcePoint" />
            <mxPoint x="-440" y="400" as="targetPoint" />
            <Array as="points">
              <mxPoint x="-520" y="270" />
              <mxPoint x="-390" y="270" />
              <mxPoint x="-390" y="400" />
            </Array>
          </mxGeometry>
        </mxCell>
        <mxCell id="c_P0hSTcN6kzpW9nxXxJ-145" value="" style="edgeStyle=none;orthogonalLoop=1;jettySize=auto;html=1;rounded=0;exitX=0.479;exitY=1.006;exitDx=0;exitDy=0;exitPerimeter=0;entryX=0.501;entryY=-0.027;entryDx=0;entryDy=0;entryPerimeter=0;labelBackgroundColor=#FF0000;fontColor=#FFFFFF;strokeColor=#FF6666;" parent="WIyWlLk6GJQsqaUBKTNV-1" target="c_P0hSTcN6kzpW9nxXxJ-146" edge="1">
          <mxGeometry width="100" relative="1" as="geometry">
            <mxPoint x="-229.97" y="240.48000000000002" as="sourcePoint" />
            <mxPoint x="-230" y="320" as="targetPoint" />
            <Array as="points" />
          </mxGeometry>
        </mxCell>
        <mxCell id="c_P0hSTcN6kzpW9nxXxJ-152" value="&lt;font style=&quot;&quot; color=&quot;#ffffff&quot;&gt;&amp;nbsp;No&amp;nbsp;&lt;/font&gt;" style="edgeLabel;html=1;align=center;verticalAlign=middle;resizable=0;points=[];labelBackgroundColor=#FF6666;" parent="c_P0hSTcN6kzpW9nxXxJ-145" vertex="1" connectable="0">
          <mxGeometry x="-0.0954" y="2" relative="1" as="geometry">
            <mxPoint y="1" as="offset" />
          </mxGeometry>
        </mxCell>
        <mxCell id="c_P0hSTcN6kzpW9nxXxJ-146" value="&lt;font style=&quot;font-size: 15px;&quot;&gt;Repair Lamp&lt;/font&gt;" style="rounded=1;whiteSpace=wrap;html=1;fontSize=12;glass=0;strokeWidth=1;shadow=0;fillColor=#FF0080;gradientColor=#FFCCE6;strokeColor=#FF0080;" parent="WIyWlLk6GJQsqaUBKTNV-1" vertex="1">
          <mxGeometry x="-310" y="340" width="160" height="40" as="geometry" />
        </mxCell>
        <mxCell id="c_P0hSTcN6kzpW9nxXxJ-147" value="" style="edgeStyle=none;orthogonalLoop=1;jettySize=auto;html=1;rounded=0;exitX=0.481;exitY=1.085;exitDx=0;exitDy=0;exitPerimeter=0;entryX=0.51;entryY=-0.047;entryDx=0;entryDy=0;entryPerimeter=0;strokeColor=#B3B3B3;" parent="WIyWlLk6GJQsqaUBKTNV-1" target="c_P0hSTcN6kzpW9nxXxJ-149" edge="1">
          <mxGeometry width="100" relative="1" as="geometry">
            <mxPoint x="-230.29999999999995" y="380" as="sourcePoint" />
            <mxPoint x="-230.38" y="455" as="targetPoint" />
            <Array as="points">
              <mxPoint x="-230.71" y="405" />
            </Array>
          </mxGeometry>
        </mxCell>
        <mxCell id="c_P0hSTcN6kzpW9nxXxJ-149" value="&lt;span style=&quot;font-weight: 400;&quot;&gt;FIN&lt;/span&gt;" style="rounded=0;whiteSpace=wrap;html=1;fontStyle=1" parent="WIyWlLk6GJQsqaUBKTNV-1" vertex="1">
          <mxGeometry x="-270" y="460" width="80" height="40" as="geometry" />
        </mxCell>
        <mxCell id="OKykm5RTqsN0eD7takWw-0" value="&lt;font style=&quot;font-size: 19px;&quot;&gt;inicia&lt;/font&gt;" style="rounded=1;whiteSpace=wrap;html=1;fillColor=#99FFFF;gradientColor=#7ea6e0;strokeColor=#6c8ebf;" parent="WIyWlLk6GJQsqaUBKTNV-1" vertex="1">
          <mxGeometry x="-940" y="60" width="120" height="60" as="geometry" />
        </mxCell>
        <mxCell id="a07x84K2xWL_65sZdXl0-2" value="&lt;span style=&quot;font-weight: 400;&quot;&gt;Es un ruta relativa&lt;/span&gt;" style="rounded=0;whiteSpace=wrap;html=1;fontStyle=1;fillColor=#f8cecc;strokeColor=#b85450;gradientColor=#ea6b66;" vertex="1" parent="WIyWlLk6GJQsqaUBKTNV-1">
          <mxGeometry x="-640" y="300" width="40" height="60" as="geometry" />
        </mxCell>
        <mxCell id="a07x84K2xWL_65sZdXl0-3" value="&lt;div style=&quot;&quot;&gt;&lt;span style=&quot;font-size: 10px; font-weight: normal; background-color: initial;&quot;&gt;Si es VALIDA es porque&lt;/span&gt;&lt;/div&gt;&lt;span style=&quot;font-weight: normal; font-size: 10px;&quot;&gt;&lt;div style=&quot;&quot;&gt;&lt;span style=&quot;background-color: initial;&quot;&gt;la ruta existe y de accede a los archivos&lt;/span&gt;&lt;/div&gt;&lt;/span&gt;" style="rounded=0;whiteSpace=wrap;html=1;fontStyle=1;fillColor=#f8cecc;strokeColor=#b85450;gradientColor=#ea6b66;align=center;" vertex="1" parent="WIyWlLk6GJQsqaUBKTNV-1">
          <mxGeometry x="-140" y="100" width="80" height="80" as="geometry" />
        </mxCell>
        <mxCell id="a07x84K2xWL_65sZdXl0-5" value="&lt;span style=&quot;font-size: 10px; font-weight: 400;&quot;&gt;Es un directorio&lt;/span&gt;" style="rounded=0;whiteSpace=wrap;html=1;fontStyle=1;fillColor=#f8cecc;strokeColor=#b85450;gradientColor=#ea6b66;align=left;" vertex="1" parent="WIyWlLk6GJQsqaUBKTNV-1">
          <mxGeometry x="10" y="325" width="60" height="30" as="geometry" />
        </mxCell>
        <mxCell id="a07x84K2xWL_65sZdXl0-6" value="&lt;span style=&quot;font-weight: normal;&quot;&gt;Por cada archivo en mi lista&lt;/span&gt;" style="rounded=0;whiteSpace=wrap;html=1;fontStyle=1;fillColor=#f8cecc;strokeColor=#b85450;gradientColor=#ea6b66;align=center;" vertex="1" parent="WIyWlLk6GJQsqaUBKTNV-1">
          <mxGeometry x="240" y="200" width="70" height="65" as="geometry" />
        </mxCell>
        <mxCell id="a07x84K2xWL_65sZdXl0-7" value="&lt;span style=&quot;font-weight: 400;&quot;&gt;Si no se convierte en absoluta colocar&amp;nbsp;un error?&lt;/span&gt;" style="rounded=0;whiteSpace=wrap;html=1;fontStyle=1;fillColor=#f5f5f5;strokeColor=#666666;gradientColor=#b3b3b3;align=left;" vertex="1" parent="WIyWlLk6GJQsqaUBKTNV-1">
          <mxGeometry x="-560" y="440" width="80" height="120" as="geometry" />
        </mxCell>
      </root>
    </mxGraphModel>
  </diagram>
</mxfile>
